<?xml version="1.0" encoding="UTF-8"?>
<svg width="1024" height="1024" viewBox="0 0 1024 1024" fill="none" xmlns="http://www.w3.org/2000/svg">
  <title>Storyflow app icon</title>
  <defs>
    <filter id="surfaceShadow" x="-8%" y="-8%" width="116%" height="116%" color-interpolation-filters="sRGB">
      <feDropShadow dx="0" dy="28" stdDeviation="42" flood-color="#0F172A" flood-opacity="0.13"/>
      <feDropShadow dx="0" dy="2" stdDeviation="4" flood-color="#0F172A" flood-opacity="0.08"/>
    </filter>
    <linearGradient id="surface" x1="192" y1="108" x2="832" y2="916" gradientUnits="userSpaceOnUse">
      <stop offset="0" stop-color="#FFFFFF"/>
      <stop offset="1" stop-color="#F6F7FA"/>
    </linearGradient>
    <linearGradient id="mark" x1="330" y1="250" x2="710" y2="786" gradientUnits="userSpaceOnUse">
      <stop offset="0" stop-color="#3D8BFF"/>
      <stop offset="1" stop-color="#1E5BFF"/>
    </linearGradient>
  </defs>
  <rect x="96" y="86" width="832" height="852" rx="224" fill="url(#surface)" filter="url(#surfaceShadow)"/>
  <path d="M362 252H700V360H470V416H642C674.033 416 700 441.967 700 474V550C700 582.033 674.033 608 642 608H470V664H700V772H362V664H254V556H584V468H312C279.967 468 254 442.033 254 410V310C254 277.967 279.967 252 312 252H362Z" fill="url(#mark)"/>
</svg>
